#!OML:ASF X:\für Bonn\!DataBase\2005_08_10_Bjorn_Final\c3d\bjorn.ASF
:FULLY-SPECIFIED
:DEGREES
54
root 0.476294 18.7157 7.36613 -2337.52 -0.771903 168.355
lowerback 30.8711 1.08692 7.76062
upperback 22.3471 -5.98075 3.39363
thorax 8.85771 -5.65365 0.207145
lowerneck 4.6515 -6.35666 1.97644
upperneck 7.70258 -9.0536 1.59872
head 1.61259 -4.58522 0.16361
rclavicle 2.22639e-014 3.18055e-014
rhumerus -359.2 -14.2883 280.13
rradius 33.5624
rwrist -12.5107
rhand -17.9204 7.19169
rfingers 7.12502
rthumb 8.34712 -22.6234
lclavicle 2.22639e-014 3.18055e-014
lhumerus -2.50886 -13.1093 80.5049
lradius 41.3525
lwrist -10.6053
lhand -26.8751 -18.4284
lfingers 7.12502
lthumb -0.299501 731.551
rfemur -30.0241 -12.5147 3.07047
rtibia 42.4487
rfoot -9.54393 10.8551
rtoes -5.3822
lfemur 153.294 172.123 153.099
ltibia 42.5241
lfoot -7.26295 -0.24788
ltoes -14.3529
55
root 0.486729 18.675 7.41555 -2337.24 -0.515028 168.058
lowerback 31.4431 1.10324 7.86533
upperback 22.4278 -6.07052 3.57966
thorax 8.76326 -5.75776 0.402856
lowerneck 4.7796 -6.38944 2.03359
upperneck 7.4081 -9.06959 1.72789
head 1.50113 -4.58849 0.20559
rclavicle -1.27222e-014 -7.31528e-014
rhumerus -358.106 -14.2638 280.523
rradius 33.0716
rwrist -12.0486
rhand -17.6097 7.24603
rfingers 7.12502
rthumb 8.64703 -22.5569
lclavicle -1.27222e-014 -7.31528e-014
lhumerus -2.07755 -13.1156 80.4238
lradius 40.8664
lwrist -10.6745
lhand -26.3552 -18.5982
lfingers 7.12502
lthumb 0.202688 731.381
rfemur -31.0647 -12.6327 2.89126
rtibia 43.223
rfoot -9.47149 11.1833
rtoes -4.94421
lfemur 152.213 172.232 152.845
ltibia 43.31
lfoot -7.18743 -0.38533
ltoes -14.881
56
root 0.496095 18.6345 7.46472 -2336.97 -0.214858 167.763
lowerback 31.9997 1.14312 7.94264
upperback 22.5381 -6.15868 3.75428
thorax 8.7133 -5.86751 0.595732
lowerneck 4.86813 -6.42383 2.13115
upperneck 7.10619 -9.08195 1.82162
head 1.39083 -4.58891 0.229136
rclavicle -5.88403e-014 -9.54166e-014
rhumerus -356.94 -14.2916 280.85
rradius 32.5826
rwrist -11.5784
rhand -17.2266 7.29901
rfingers 7.12502
rthumb 9.01665 -22.4883
lclavicle -5.88403e-014 -9.54166e-014
lhumerus -1.60267 -13.0882 80.3122
lradius 40.3532
lwrist -10.7526
lhand -25.867 -18.5208
lfingers 7.12502
lthumb 0.674186 731.458
rfemur -32.1076 -12.7469 2.72499
rtibia 43.9843
rfoot -9.42402 11.509
rtoes -4.72494
lfemur 151.165 172.336 152.618
ltibia 44.0123
lfoot -7.15794 -0.582808
ltoes -15.1659
57
root 0.504031 18.5927 7.51333 -2336.68 0.0899419 167.436
lowerback 32.5222 1.19541 7.97953
upperback 22.6702 -6.25779 3.9264
thorax 8.70599 -5.98881 0.804022
lowerneck 4.90189 -6.95546 2.24733
upperneck 6.83512 -8.93319 1.78091
head 1.28753 -4.26709 0.212782
rclavicle 3.18055e-014 2.14687e-014
rhumerus -355.707 -14.3712 281.15
rradius 32.0898
rwrist -11.0861
rhand -16.8607 7.37606
rfingers 7.12502
rthumb 9.36974 -22.3957
lclavicle 3.18055e-014 2.14687e-014
lhumerus -1.08504 -13.1279 80.1515
lradius 39.8359
lwrist -10.7556
lhand -25.442 -18.2993
lfingers 7.12502
lthumb 1.08471 731.678
rfemur -33.1609 -12.8609 2.51851
rtibia 44.7449
rfoot -9.34942 11.8504
rtoes -4.39007
lfemur 150.142 172.503 152.383
ltibia 44.629
lfoot -7.18144 -0.79798
ltoes -15.1906
58
root 0.508507 18.5497 7.56147 -2336.4 0.402581 167.122
lowerback 33.0681 1.20936 8.06674
upperback 22.777 -6.37134 4.0489
thorax 8.6569 -6.10256 0.943429
lowerneck 4.85243 -6.97752 2.48445
upperneck 6.67313 -8.96304 1.7154
head 1.2307 -4.28529 0.158136
rclavicle -6.36111e-015 9.22361e-014
rhumerus -354.52 -14.4872 281.397
rradius 31.6107
rwrist -10.5623
rhand -16.4315 7.42177
rfingers 7.12502
rthumb 9.78389 -22.331
lclavicle -6.36111e-015 9.22361e-014
lhumerus -0.609611 -13.1998 79.9531
lradius 39.2666
lwrist -10.7498
lhand -25.0288 -17.9399
lfingers 7.12502
lthumb 1.48379 732.035
rfemur -34.2227 -13.0017 2.32351
rtibia 45.5045
rfoot -9.26221 12.2176
rtoes -3.96349
lfemur 149.136 172.701 152.172
ltibia 45.1766
lfoot -7.25297 -1.02421
ltoes -15.8166
59
root 0.510796 18.5037 7.60863 -2336.12 0.701636 166.819
lowerback 34.143 -9.43671 1.05654
upperback 23.6447 -1.89674 0.574183
thorax 8.73577 2.68776 1.04902
lowerneck 4.82528 -7.0051 2.73689
upperneck 6.52934 -8.99592 1.62511
head 1.17417 -4.30393 0.0944773
rclavicle 1.59028e-015 2.3059e-014
rhumerus -353.346 -14.7402 281.577
rradius 31.1089
rwrist -9.94773
rhand -16.0049 7.54504
rfingers 7.12502
rthumb 10.1955 -22.1879
lclavicle 1.59028e-015 2.3059e-014
lhumerus -0.182039 -13.4204 79.7153
lradius 38.7126
lwrist -10.6503
lhand -24.611 -17.4096
lfingers 7.12502
lthumb 1.8873 732.562
rfemur -35.2927 -13.195 2.14837
rtibia 46.2745
rfoot -9.17881 12.6065
rtoes -3.67831
lfemur 148.154 172.951 151.993
ltibia 45.6586
lfoot -7.35329 -1.24552
ltoes -17.1762
60
root 0.512008 18.4566 7.65615 -2335.82 1.01229 166.502
lowerback 34.7232 -9.54998 0.939595
upperback 23.7479 -1.92334 0.607676
thorax 8.66433 2.68408 1.16071
lowerneck 4.78977 -7.02134 2.96493
upperneck 6.3878 -9.0161 1.55178
head 1.12184 -4.31676 0.0394491
rclavicle -2.22639e-014 -2.38542e-014
rhumerus -352.163 -15.0002 281.718
rradius 30.6252
rwrist -9.29996
rhand -15.6092 7.56791
rfingers 7.12502
rthumb 10.5771 -22.1459
lclavicle -2.22639e-014 -2.38542e-014
lhumerus 0.237744 -13.6222 79.4562
lradius 38.1573
lwrist -10.5405
lhand -24.1392 -16.9348
lfingers 7.12502
lthumb 2.3429 733.032
rfemur -36.3908 -13.3585 1.95401
rtibia 47.0463
rfoot -9.07871 12.9689
rtoes -3.40475
lfemur 147.172 173.22 151.818
ltibia 46.0845
lfoot -7.51521 -1.43381
ltoes -17.5219
61
root 0.511541 18.4083 7.70211 -2335.54 1.3478 166.197
lowerback 35.3118 -9.66475 0.864688
upperback 23.8461 -1.94153 0.61433
thorax 8.58421 2.69196 1.21958
lowerneck 4.74684 -7.04442 3.18844
upperneck 6.2553 -9.04724 1.50981
head 1.07541 -4.33485 -0.00577149
rclavicle 5.725e-014 2.62396e-014
rhumerus -350.99 -15.3683 281.804
rradius 30.1562
rwrist -8.61209
rhand -15.1874 7.59361
rfingers 7.12502
rthumb 10.984 -22.099
lclavicle 5.725e-014 2.62396e-014
lhumerus 0.588932 -13.8292 79.1754
lradius 37.7253
lwrist -10.3906
lhand -23.4831 -16.4751
lfingers 7.12502
lthumb 2.97652 733.484
rfemur -37.4779 -13.5149 1.77748
rtibia 47.8214
rfoot -9.00366 13.3574
rtoes -3.14614
lfemur 146.228 173.471 151.669
ltibia 46.455
lfoot -7.72774 -1.55197
ltoes -16.9166
